<?xml version="1.0" encoding="UTF-8" standalone="no"?>
<svg width="96" height="64" xmlns="http://www.w3.org/2000/svg">
  <!-- Isometric couch -->
  <g>
    <!-- Couch base -->
    <polygon points="16,40 80,40 70,50 26,50" fill="#7b5835" stroke="#000" stroke-width="1"/>
    
    <!-- Couch seat -->
    <polygon points="26,50 70,50 70,40 26,40" fill="#8c6945" stroke="#000" stroke-width="1"/>
    
    <!-- Couch back -->
    <polygon points="16,40 16,20 80,20 80,40" fill="#8c6945" stroke="#000" stroke-width="1"/>
    
    <!-- Couch arms -->
    <polygon points="16,40 26,40 26,30 16,30" fill="#7b5835" stroke="#000" stroke-width="1"/>
    <polygon points="70,40 80,40 80,30 70,30" fill="#7b5835" stroke="#000" stroke-width="1"/>
    
    <!-- Couch cushions -->
    <rect x="30" y="25" width="15" height="15" rx="2" fill="#9c7955" stroke="#000" stroke-width="0.5"/>
    <rect x="50" y="25" width="15" height="15" rx="2" fill="#9c7955" stroke="#000" stroke-width="0.5"/>
    
    <!-- Couch legs -->
    <line x1="26" y1="50" x2="26" y2="55" stroke="#5d4628" stroke-width="2"/>
    <line x1="70" y1="50" x2="70" y2="55" stroke="#5d4628" stroke-width="2"/>
    <line x1="16" y1="40" x2="16" y2="45" stroke="#5d4628" stroke-width="2"/>
    <line x1="80" y1="40" x2="80" y2="45" stroke="#5d4628" stroke-width="2"/>
  </g>
</svg>