<?xml version="1.0" encoding="UTF-8" standalone="no"?>
<svg width="256" height="32" viewBox="0 0 256 32" fill="none" xmlns="http://www.w3.org/2000/svg">
  <!-- Frame 1 -->
  <g transform="translate(0,0)">
    <!-- Message bubble background -->
    <path d="M4 4L28 4L28 22L19 22L16 28L13 22L4 22L4 4Z" fill="#ffffff" stroke="#4488ff" stroke-width="2" stroke-linejoin="round"/>
    
    <!-- Code/message content -->
    <line x1="8" y1="10" x2="24" y2="10" stroke="#4488ff" stroke-width="1.5"/>
    <line x1="8" y1="14" x2="20" y2="14" stroke="#4488ff" stroke-width="1.5"/>
    <line x1="8" y1="18" x2="22" y2="18" stroke="#4488ff" stroke-width="1.5"/>
  </g>
  
  <!-- Frame 2 -->
  <g transform="translate(32,0)">
    <!-- Message bubble background -->
    <path d="M4 4L28 4L28 22L19 22L16 27L13 22L4 22L4 4Z" fill="#ffffff" stroke="#5599ff" stroke-width="2" stroke-linejoin="round"/>
    
    <!-- Code/message content -->
    <line x1="8" y1="10" x2="24" y2="10" stroke="#5599ff" stroke-width="1.5"/>
    <line x1="8" y1="14" x2="19" y2="14" stroke="#5599ff" stroke-width="1.5"/>
    <line x1="8" y1="18" x2="20" y2="18" stroke="#5599ff" stroke-width="1.5"/>
  </g>
  
  <!-- Frame 3 -->
  <g transform="translate(64,0)">
    <!-- Message bubble background -->
    <path d="M4 4L28 4L28 22L19 22L16 26L13 22L4 22L4 4Z" fill="#ffffff" stroke="#66aaff" stroke-width="2" stroke-linejoin="round"/>
    
    <!-- Code/message content -->
    <line x1="8" y1="10" x2="24" y2="10" stroke="#66aaff" stroke-width="1.5"/>
    <line x1="8" y1="14" x2="18" y2="14" stroke="#66aaff" stroke-width="1.5"/>
    <line x1="8" y1="18" x2="21" y2="18" stroke="#66aaff" stroke-width="1.5"/>
  </g>
  
  <!-- Frame 4 -->
  <g transform="translate(96,0)">
    <!-- Message bubble background -->
    <path d="M4 4L28 4L28 22L19 22L16 25L13 22L4 22L4 4Z" fill="#ffffff" stroke="#77bbff" stroke-width="2" stroke-linejoin="round"/>
    
    <!-- Code/message content -->
    <line x1="8" y1="10" x2="24" y2="10" stroke="#77bbff" stroke-width="1.5"/>
    <line x1="8" y1="14" x2="22" y2="14" stroke="#77bbff" stroke-width="1.5"/>
    <line x1="8" y1="18" x2="19" y2="18" stroke="#77bbff" stroke-width="1.5"/>
  </g>
  
  <!-- Frame 5 -->
  <g transform="translate(128,0)">
    <!-- Message bubble background -->
    <path d="M4 4L28 4L28 22L19 22L16 26L13 22L4 22L4 4Z" fill="#ffffff" stroke="#66aaff" stroke-width="2" stroke-linejoin="round"/>
    
    <!-- Code/message content -->
    <line x1="8" y1="10" x2="24" y2="10" stroke="#66aaff" stroke-width="1.5"/>
    <line x1="8" y1="14" x2="21" y2="14" stroke="#66aaff" stroke-width="1.5"/>
    <line x1="8" y1="18" x2="23" y2="18" stroke="#66aaff" stroke-width="1.5"/>
  </g>
  
  <!-- Frame 6 -->
  <g transform="translate(160,0)">
    <!-- Message bubble background -->
    <path d="M4 4L28 4L28 22L19 22L16 27L13 22L4 22L4 4Z" fill="#ffffff" stroke="#5599ff" stroke-width="2" stroke-linejoin="round"/>
    
    <!-- Code/message content -->
    <line x1="8" y1="10" x2="24" y2="10" stroke="#5599ff" stroke-width="1.5"/>
    <line x1="8" y1="14" x2="20" y2="14" stroke="#5599ff" stroke-width="1.5"/>
    <line x1="8" y1="18" x2="22" y2="18" stroke="#5599ff" stroke-width="1.5"/>
  </g>
  
  <!-- Frame 7 -->
  <g transform="translate(192,0)">
    <!-- Message bubble background -->
    <path d="M4 4L28 4L28 22L19 22L16 28L13 22L4 22L4 4Z" fill="#ffffff" stroke="#4488ff" stroke-width="2" stroke-linejoin="round"/>
    
    <!-- Code/message content -->
    <line x1="8" y1="10" x2="24" y2="10" stroke="#4488ff" stroke-width="1.5"/>
    <line x1="8" y1="14" x2="19" y2="14" stroke="#4488ff" stroke-width="1.5"/>
    <line x1="8" y1="18" x2="21" y2="18" stroke="#4488ff" stroke-width="1.5"/>
  </g>
  
  <!-- Frame 8 -->
  <g transform="translate(224,0)">
    <!-- Message bubble background -->
    <path d="M4 4L28 4L28 22L19 22L16 27L13 22L4 22L4 4Z" fill="#ffffff" stroke="#5599ff" stroke-width="2" stroke-linejoin="round"/>
    
    <!-- Code/message content - different pattern to show animation -->
    <line x1="8" y1="10" x2="22" y2="10" stroke="#5599ff" stroke-width="1.5"/>
    <line x1="8" y1="14" x2="24" y2="14" stroke="#5599ff" stroke-width="1.5"/>
    <line x1="8" y1="18" x2="20" y2="18" stroke="#5599ff" stroke-width="1.5"/>
  </g>
</svg>