<?xml version="1.0" encoding="UTF-8" standalone="no"?>
<svg width="48" height="80" xmlns="http://www.w3.org/2000/svg">
  <!-- Plant -->
  <g>
    <!-- Pot -->
    <polygon points="14,60 34,60 30,75 18,75" fill="#8b4513" stroke="#000" stroke-width="1"/>
    
    <!-- Soil -->
    <ellipse cx="24" cy="60" rx="10" ry="5" fill="#5e3b1f" stroke="#000" stroke-width="0.5"/>
    
    <!-- Plant stem -->
    <line x1="24" y1="60" x2="24" y2="30" stroke="#228b22" stroke-width="2"/>
    
    <!-- Leaves -->
    <path d="M 24,55 C 14,45 14,35 24,30" fill="#32cd32" stroke="#228b22" stroke-width="1"/>
    <path d="M 24,55 C 34,45 34,35 24,30" fill="#32cd32" stroke="#228b22" stroke-width="1"/>
    <path d="M 24,50 C 34,40 24,30 24,25" fill="#32cd32" stroke="#228b22" stroke-width="1"/>
    <path d="M 24,50 C 14,40 24,30 24,25" fill="#32cd32" stroke="#228b22" stroke-width="1"/>
    <path d="M 24,45 C 18,35 24,25 24,20" fill="#32cd32" stroke="#228b22" stroke-width="1"/>
    <path d="M 24,45 C 30,35 24,25 24,20" fill="#32cd32" stroke="#228b22" stroke-width="1"/>
    <path d="M 24,40 C 20,30 24,20 24,15" fill="#32cd32" stroke="#228b22" stroke-width="1"/>
    <path d="M 24,40 C 28,30 24,20 24,15" fill="#32cd32" stroke="#228b22" stroke-width="1"/>
    
    <!-- Small leaves at the top -->
    <ellipse cx="24" cy="15" rx="5" ry="3" fill="#32cd32" stroke="#228b22" stroke-width="0.5"/>
  </g>
</svg>