<?xml version="1.0" encoding="UTF-8" standalone="no"?>
<svg width="64" height="64" viewBox="0 0 64 64" fill="none" xmlns="http://www.w3.org/2000/svg">
  <!-- Top face -->
  <path d="M32 0L64 16L32 32L0 16L32 0Z" fill="#a67c52" stroke="#876543" stroke-width="1"/>
  
  <!-- Right face -->
  <path d="M64 16L64 48L32 64L32 32L64 16Z" fill="#936a43" stroke="#876543" stroke-width="1"/>
  
  <!-- Left face -->
  <path d="M0 16L0 48L32 64L32 32L0 16Z" fill="#7a5939" stroke="#876543" stroke-width="1"/>

  <!-- Wall texture details -->
  <!-- Horizontal brick lines -->
  <path d="M12 14L52 14" stroke="#876543" stroke-width="0.5" />
  <path d="M8 22L56 22" stroke="#876543" stroke-width="0.5" />
  <path d="M4 30L60 30" stroke="#876543" stroke-width="0.5" />
  
  <!-- Vertical brick lines -->
  <path d="M16 8L16 20" stroke="#876543" stroke-width="0.5" />
  <path d="M32 4L32 28" stroke="#876543" stroke-width="0.5" />
  <path d="M48 8L48 20" stroke="#876543" stroke-width="0.5" />
  
  <!-- Right face details -->
  <path d="M50 24L50 44" stroke="#876543" stroke-width="0.5" />
  <path d="M42 28L42 48" stroke="#876543" stroke-width="0.5" />
  <path d="M56 20L56 40" stroke="#876543" stroke-width="0.5" />
  <path d="M40 40L56 40" stroke="#876543" stroke-width="0.5" />
  <path d="M36 48L52 48" stroke="#876543" stroke-width="0.5" />
  <path d="M44 32L60 32" stroke="#876543" stroke-width="0.5" />
  
  <!-- Left face details -->
  <path d="M14 24L14 44" stroke="#876543" stroke-width="0.5" />
  <path d="M22 28L22 48" stroke="#876543" stroke-width="0.5" />
  <path d="M8 20L8 40" stroke="#876543" stroke-width="0.5" />
  <path d="M8 40L24 40" stroke="#876543" stroke-width="0.5" />
  <path d="M12 48L28 48" stroke="#876543" stroke-width="0.5" />
  <path d="M4 32L20 32" stroke="#876543" stroke-width="0.5" />
</svg>